<?xml version="1.0" encoding="utf-8"?>
<!-- Generator: Adobe Illustrator 16.0.0, SVG Export Plug-In . SVG Version: 6.00 Build 0)  -->
<!DOCTYPE svg PUBLIC "-//W3C//DTD SVG 1.1//EN" "http://www.w3.org/Graphics/SVG/1.1/DTD/svg11.dtd">
<svg version="1.1" id="Layer_1" xmlns="http://www.w3.org/2000/svg" xmlns:xlink="http://www.w3.org/1999/xlink" x="0px" y="0px"
	 width="457.848px" height="157.366px" viewBox="93.984 96.589 457.848 157.366"
	 enable-background="new 93.984 96.589 457.848 157.366" xml:space="preserve">
<g enable-background="new    ">
	<path fill="#FFFFFF" d="M104.029,100.713c1.269,0.071,2.591,0.105,3.965,0.105s2.766,0.071,4.177,0.212
		c5.287,0.282,10.151,1.552,14.592,3.807c4.441,2.257,6.837,7.016,7.19,14.275c0,4.583-0.83,8.337-2.485,11.261
		c-1.657,2.926-4.142,5.022-7.455,6.292c0.352,0,0.74,0.036,1.163,0.105c0.423,0.071,0.81,0.177,1.164,0.317
		c3.807,0.987,7.278,3.349,10.415,7.084c3.136,3.737,4.706,8.425,4.706,14.063c0,7.05-2.768,12.408-8.301,16.073
		c-5.535,3.666-12.495,5.498-20.883,5.498H93.984v-79.094h10.045V100.713z M104.77,108.221v26.646
		c0.563,0.142,1.145,0.211,1.745,0.211c0.598,0,1.18,0,1.745,0c5.145,0,9.057-0.968,11.737-2.907
		c2.678-1.938,4.018-5.163,4.018-9.676c0-0.069,0-0.158,0-0.264s0-0.193,0-0.265c0-0.704-0.018-1.497-0.053-2.379
		c-0.036-0.881-0.159-1.779-0.37-2.696c-0.565-2.185-1.956-4.159-4.177-5.922c-2.22-1.761-6.292-2.644-12.213-2.644
		c-0.354,0-0.74,0-1.163,0s-0.846,0-1.269,0V108.221z M104.77,142.375v29.078c1.058,0.143,2.079,0.265,3.066,0.37
		c0.986,0.104,1.938,0.158,2.855,0.158c5.005,0,8.917-0.756,11.737-2.273c2.819-1.515,4.899-3.188,6.239-5.022
		c0.704-1.058,1.216-2.078,1.533-3.066c0.317-0.986,0.476-1.832,0.476-2.537c0-0.212,0-0.424,0-0.635c0-0.212,0-0.458,0-0.74
		c0.07-5.356-2.027-9.234-6.292-11.632c-4.266-2.396-10.804-3.595-19.615-3.595L104.77,142.375L104.77,142.375z"/>
	<path fill="#FFFFFF" d="M161.339,100.713v79.094H151.4v-79.094H161.339z"/>
	<path fill="#FFFFFF" d="M235.463,163.945v10.892c-1.623,1.128-3.314,2.08-5.076,2.854c-1.763,0.777-3.56,1.411-5.393,1.903
		c-2.468,0.635-4.882,1.11-7.243,1.428c-2.363,0.317-4.494,0.476-6.397,0.476c-10.434,0-18.875-3.241-25.325-9.728
		c-6.45-6.485-10.663-13.604-12.636-21.359c-0.423-1.692-0.74-3.366-0.952-5.022c-0.212-1.656-0.317-3.26-0.317-4.812
		c0-0.141,0-0.265,0-0.37s0-0.229,0-0.37s0-0.265,0-0.37c0-0.105,0-0.228,0-0.37c0.281-10.291,2.802-18.293,7.561-24.003
		c4.759-5.71,9.956-9.868,15.597-12.478c3.524-1.621,6.926-2.749,10.204-3.384c3.278-0.634,6.043-0.951,8.3-0.951
		c4.582,0,8.618,0.423,12.107,1.269c3.489,0.846,6.678,2.115,9.569,3.807v11.525c-0.565-0.423-1.163-0.827-1.797-1.216
		c-0.635-0.387-1.234-0.793-1.798-1.216c-3.032-1.832-6.027-3.188-8.988-4.071c-2.961-0.88-5.852-1.321-8.671-1.321
		c-8.813,0-16.355,3.314-22.628,9.939c-6.275,6.627-9.411,13.994-9.411,22.1c0,10.082,3.278,18.065,9.834,23.95
		c6.556,5.887,13.958,8.829,22.205,8.829c0.635,0,1.251-0.017,1.851-0.053c0.598-0.035,1.216-0.088,1.851-0.158
		c3.03-0.353,6.043-1.146,9.041-2.38c2.996-1.232,5.833-2.977,8.512-5.233V163.945L235.463,163.945z"/>
	<path fill="#FFFFFF" d="M255.341,100.713v79.094h-9.939v-79.094H255.341z"/>
	<path fill="#FFFFFF" d="M262.003,109.912v-9.199h48.323v9.199h-18.293v69.895h-10.891v-69.895H262.003L262.003,109.912z"/>
	<path fill="#FFFFFF" d="M361.08,100.713v9.199h-32.463v20.726h31.723v9.199h-31.723v30.03h32.463v9.939h-43.248v-79.094
		L361.08,100.713L361.08,100.713z"/>
	<path fill="#FFFFFF" d="M432.77,163.945v10.892c-1.62,1.128-3.313,2.08-5.073,2.854c-1.765,0.777-3.562,1.411-5.394,1.903
		c-2.469,0.635-4.883,1.11-7.244,1.428c-2.363,0.317-4.494,0.476-6.397,0.476c-10.433,0-18.873-3.241-25.324-9.728
		c-6.448-6.485-10.662-13.604-12.635-21.359c-0.425-1.692-0.74-3.366-0.952-5.022c-0.212-1.656-0.316-3.26-0.316-4.812
		c0-0.141,0-0.265,0-0.37s0-0.229,0-0.37s0-0.265,0-0.37c0-0.105,0-0.228,0-0.37c0.28-10.291,2.803-18.293,7.561-24.003
		c4.758-5.71,9.956-9.868,15.597-12.478c3.524-1.621,6.927-2.749,10.204-3.384c3.277-0.634,6.043-0.951,8.301-0.951
		c4.582,0,8.617,0.423,12.107,1.269c3.488,0.846,6.678,2.115,9.567,3.807v11.525c-0.563-0.423-1.161-0.827-1.797-1.216
		c-0.635-0.387-1.233-0.793-1.797-1.216c-3.033-1.832-6.026-3.188-8.987-4.071c-2.961-0.88-5.854-1.321-8.672-1.321
		c-8.813,0-16.354,3.314-22.629,9.939c-6.273,6.627-9.41,13.994-9.41,22.1c0,10.082,3.277,18.065,9.834,23.95
		c6.557,5.887,13.957,8.829,22.205,8.829c0.635,0,1.252-0.017,1.852-0.053c0.598-0.035,1.215-0.088,1.85-0.158
		c3.031-0.353,6.045-1.146,9.041-2.38c2.996-1.232,5.832-2.977,8.513-5.233v-0.107H432.77z"/>
	<path fill="#FFFFFF" d="M453.494,100.713v70.74h24.215v8.354h-34.154v-79.094H453.494z"/>
	<path fill="#FFFFFF" d="M551.832,179.807h-10.894l-9.094-19.985H496l-9.199,19.985h-10.785l37.433-83.218L551.832,179.807z
		 M499.385,150.622h28.232l-14.17-31.616L499.385,150.622z"/>
</g>
<g>
	<g enable-background="new    ">
		<path fill="#3DA35D" d="M283.874,218c-2.111-1.797-4.341-3.145-6.692-4.043s-4.822-1.348-7.413-1.348
			c-5.015,0-9.096,1.609-12.241,4.827c-3.145,3.218-4.717,7.387-4.717,12.507c0,4.952,1.531,9.038,4.592,12.256
			c3.061,3.219,6.922,4.826,11.582,4.826c2.716,0,5.302-0.479,7.758-1.44c2.455-0.961,4.812-2.414,7.068-4.356v8.432
			c-2.006,1.441-4.19,2.52-6.551,3.229c-2.362,0.711-4.921,1.066-7.68,1.066c-3.511,0-6.755-0.575-9.733-1.725
			c-2.978-1.148-5.595-2.842-7.852-5.078c-2.236-2.193-3.955-4.779-5.156-7.758c-1.202-2.978-1.803-6.148-1.803-9.513
			c0-3.365,0.601-6.525,1.803-9.482c1.201-2.957,2.941-5.553,5.219-7.789c2.278-2.257,4.89-3.966,7.836-5.125
			c2.947-1.16,6.133-1.74,9.561-1.74c2.696,0,5.266,0.392,7.711,1.176c2.445,0.783,4.816,1.97,7.116,3.558L283.874,218z"/>
		<path fill="#3DA35D" d="M323.432,252.73l-5.203-11.816h-18.181l-5.329,11.816h-7.836l22.224-47.708L331.3,252.73H323.432z
			 M302.807,234.708h12.789l-4.702-10.47c-0.272-0.669-0.554-1.437-0.846-2.304c-0.293-0.867-0.585-1.834-0.878-2.899
			c-0.25,1.003-0.517,1.938-0.799,2.805c-0.282,0.868-0.569,1.667-0.862,2.398L302.807,234.708z"/>
		<path fill="#3DA35D" d="M335.626,252.73v-45.89h25.608v6.331h-18.148v11.441h18.148v6.552h-18.148v21.565H335.626L335.626,252.73z
			"/>
		<path fill="#3DA35D" d="M369.322,252.73v-45.89h25.609v6.331h-18.148v11.504h18.148v6.552h-18.148v14.827h18.148v6.676H369.322z
			 M377.816,202.327l5.957-8.525h7.053l-9.153,8.525H377.816z"/>
	</g>
</g>
</svg>
